<svg id="图层_1" data-name="图层 1" xmlns="http://www.w3.org/2000/svg" xmlns:xlink="http://www.w3.org/1999/xlink" viewBox="0 0 240.89 55.29"><defs><style>.cls-1{fill:none;}.cls-2{clip-path:url(#clip-path);}.cls-3{fill:url(#未命名的渐变_9);}.cls-4{clip-path:url(#clip-path-2);}.cls-5{fill:url(#未命名的渐变_9-2);}.cls-6{clip-path:url(#clip-path-3);}.cls-7{fill:url(#未命名的渐变_9-3);}.cls-8{clip-path:url(#clip-path-4);}.cls-9{fill:url(#未命名的渐变_9-4);}.cls-10{clip-path:url(#clip-path-5);}.cls-11{fill:url(#未命名的渐变_9-5);}.cls-12{clip-path:url(#clip-path-6);}.cls-13{fill:url(#未命名的渐变_9-6);}.cls-14{clip-path:url(#clip-path-7);}.cls-15{fill:url(#未命名的渐变_9-7);}.cls-16{clip-path:url(#clip-path-8);}.cls-17{fill:url(#未命名的渐变_9-8);}.cls-18{clip-path:url(#clip-path-9);}.cls-19{fill:url(#未命名的渐变_9-9);}.cls-20{fill:#fff;}</style><clipPath id="clip-path" transform="translate(-0.55 -0.36)"><path class="cls-1" d="M6.71,35.09a.57.57,0,0,0-.23.78A49.55,49.55,0,0,0,14.76,47.1c.68.67,1.39,1.33,2.08,2l.44.41,2.11,1.74a7.57,7.57,0,0,0,.63.49l1.4,1,.35.25c.36.26.72.52,1.1.75l2.22,1.38.72.41a.51.51,0,0,0,.29.08.56.56,0,0,0,.5-.29.57.57,0,0,0-.21-.79l-.7-.41-2.21-1.38a10.76,10.76,0,0,1-1-.69l-.36-.26-1.42-1c-.18-.13-.36-.28-.55-.44l-2.07-1.7-.43-.4c-.68-.63-1.38-1.29-2-1.94a48.6,48.6,0,0,1-8.08-11A.57.57,0,0,0,7,35a.58.58,0,0,0-.28.07"/></clipPath><linearGradient id="未命名的渐变_9" x1="-801.75" y1="590.32" x2="-800.84" y2="590.32" gradientTransform="matrix(22.26, 0, 0, -22.26, 17856.31, 13188.14)" gradientUnits="userSpaceOnUse"><stop offset="0" stop-color="#23e5ff"/><stop offset="0.01" stop-color="#23e5ff"/><stop offset="1" stop-color="#001ff3"/></linearGradient><clipPath id="clip-path-2" transform="translate(-0.55 -0.36)"><path class="cls-1" d="M4.28,22.52a.59.59,0,0,0-.44.7,47.27,47.27,0,0,0,13,23.05.55.55,0,0,0,.4.16.59.59,0,0,0,.42-.18.58.58,0,0,0,0-.82A46,46,0,0,1,5,23a.58.58,0,0,0-.57-.45l-.13,0"/></clipPath><linearGradient id="未命名的渐变_9-2" x1="-785.41" y1="599.85" x2="-784.5" y2="599.85" gradientTransform="matrix(15.35, 0, 0, -15.35, 12061.48, 9243.48)" xlink:href="#未命名的渐变_9"/><clipPath id="clip-path-3" transform="translate(-0.55 -0.36)"><path class="cls-1" d="M49.67,32A45.82,45.82,0,0,1,42.56,42.9a46.09,46.09,0,0,1-9.92,8.45.58.58,0,0,0-.18.8.57.57,0,0,0,.49.27.49.49,0,0,0,.31-.09A46.75,46.75,0,0,0,50.73,32.47a.58.58,0,0,0-.28-.77.57.57,0,0,0-.25-.06.59.59,0,0,0-.53.34"/></clipPath><linearGradient id="未命名的渐变_9-3" x1="-798.2" y1="592.47" x2="-797.29" y2="592.47" gradientTransform="matrix(20.22, 0, 0, -20.22, 16169.86, 12020.09)" xlink:href="#未命名的渐变_9"/><clipPath id="clip-path-4" transform="translate(-0.55 -0.36)"><path class="cls-1" d="M40.14,2.79a.58.58,0,0,0,.44.69c3.2.72,5.84,1.44,8.29,2.25l.37.13.65.22,1,.38.37.14.64.25,1,.45,0,0a17.71,17.71,0,0,1,1.9,1l.82.45.29.16,0,.84c0,.18,0,.38,0,.57v2.2l-.11,3.28L55.72,18c0,.13,0,.26,0,.4s0,.45-.08.67l-.18,1.09a46.75,46.75,0,0,1-2.13,8.42L52.5,30.6a7.86,7.86,0,0,1-.36.86l-.51,1.13c-.4.95-.91,1.89-1.4,2.8-.19.36-.39.72-.56,1s-.51.83-.76,1.24l-.39.63-.58.92-.63.87-.44.63c-.27.38-.55.77-.83,1.13l-1.4,1.72c-.33.43-.7.82-1.09,1.24-.12.12-.23.24-.34.37l-1.12,1.2-.24.22L40,48.39l-.24.22-1.28,1.06c-.83.72-1.75,1.37-2.63,2l-.85.6c-.38.27-.78.52-1.18.76l-.65.41-.94.58-.57.34-.34.19a.59.59,0,0,0-.2.8.58.58,0,0,0,.5.28.56.56,0,0,0,.3-.08l.31-.18.62-.36.94-.59.64-.4c.41-.25.83-.51,1.25-.8l.84-.61c.91-.64,1.85-1.32,2.71-2.06l1.28-1.06.29-.26,1.88-1.78.29-.27L44.06,46c.11-.13.22-.25.34-.37.39-.42.79-.84,1.15-1.3L47,42.59c.3-.39.59-.8.87-1.19l.44-.62.64-.89.61-1c.12-.21.25-.42.38-.63.27-.41.53-.83.79-1.28l.57-1.07a31.18,31.18,0,0,0,1.45-2.89l.5-1.11a9.82,9.82,0,0,0,.4-.94l.79-2.08a48,48,0,0,0,2.18-8.63l.18-1.09c0-.25.06-.49.09-.74s0-.25,0-.39l.21-2.19.12-3.36V10.3c0-.21,0-.42,0-.62l0-1.33-.11-.15A.81.81,0,0,0,56.72,8l-.45-.24-.82-.45a20.93,20.93,0,0,0-2.05-1l-1-.43c-.24-.11-.48-.2-.7-.28l-.37-.14L50.3,5c-.23-.09-.47-.16-.7-.24l-.36-.12c-2.5-.83-5.17-1.55-8.4-2.28l-.13,0a.59.59,0,0,0-.57.46"/></clipPath><linearGradient id="未命名的渐变_9-4" x1="-810.04" y1="585.44" x2="-809.13" y2="585.44" gradientTransform="matrix(28.78, 0, 0, -28.78, 23347.4, 16880.32)" xlink:href="#未命名的渐变_9"/><clipPath id="clip-path-5" transform="translate(-0.55 -0.36)"><path class="cls-1" d="M52,11h0M28.32,4.82a.58.58,0,0,0,.49.66l3.86.6c1.51.26,2.85.5,4.08.75,3,.6,5.6,1.22,8,1.9l.72.21,1.23.37.71.23c.4.13.81.26,1.19.4l.7.27,1.16.44,1.36.6.15.07v1.27l-.06,2c0,.13,0,.25,0,.38l0,.6-.11,1a42.21,42.21,0,0,1-1.43,7.81l-.6,1.95c-.08.3-.2.61-.31.9l-.36,1c-.31.89-.72,1.77-1.11,2.63-.16.34-.32.69-.46,1A44,44,0,0,1,38.05,44.6a.57.57,0,0,0,0,.82.55.55,0,0,0,.42.19.6.6,0,0,0,.4-.15,45.1,45.1,0,0,0,9.7-13.11l.47-1c.4-.88.82-1.79,1.14-2.72l.35-.94a9.45,9.45,0,0,0,.35-1l.6-1.95a43.37,43.37,0,0,0,1.47-8l.1-1c0-.23,0-.46,0-.68s0-.24,0-.36l.07-2V11a.57.57,0,0,0-.13-.41l-.07-.1-.44-.23-1.57-.69c-.4-.17-.82-.33-1.22-.48L49,8.86l-1.24-.43-.71-.23L45.8,7.82l-.72-.21C42.64,6.92,40,6.29,37,5.69c-1.24-.25-2.59-.5-4.12-.76L30.8,4.6,29,4.33h-.09a.58.58,0,0,0-.57.5"/></clipPath><linearGradient id="未命名的渐变_9-5" x1="-808.47" y1="586.34" x2="-807.56" y2="586.34" gradientTransform="matrix(27.26, 0, 0, -27.26, 22069.51, 16010.22)" xlink:href="#未命名的渐变_9"/><clipPath id="clip-path-6" transform="translate(-0.55 -0.36)"><path class="cls-1" d="M54,9.74h0M28.8,2.27a132.87,132.87,0,0,0-15.12,3A64.34,64.34,0,0,0,6.29,7.6l-1.76.77-.88.46L3,9.18l-.11.06-.28.17V11c0,.9,0,1.82,0,2.74a.57.57,0,0,0,.61.55.57.57,0,0,0,.55-.6c0-.89,0-1.8,0-2.68v-.9L5,9.43l1.72-.75A60.56,60.56,0,0,1,14,6.36,131.29,131.29,0,0,1,28.89,3.43c2.88.4,5.9.92,9,1.55,3.36.69,6.27,1.41,8.89,2.21.47.14.94.3,1.4.45l.77.25L51,8.68l1.23.54a7.87,7.87,0,0,1,.83.39l.91.48v1.4c0,.48,0,1,0,1.46l-.08,2.32c0,.25,0,.49-.05.75s0,.24,0,.35l-.23,2.27-.18,1.12a.57.57,0,0,0,.47.67H54a.57.57,0,0,0,.57-.49l.19-1.14L55,16.47l0-.32a8.1,8.1,0,0,0,.06-.86l.08-2.3c0-.5,0-1,0-1.51,0-.27,0-.54,0-.82V9.79A.64.64,0,0,0,55,9.36L55,9.27l-1.3-.68c-.31-.17-.63-.31-.93-.44l-1.25-.54c-.77-.3-1.46-.56-2.19-.82l-.77-.25c-.47-.16-1-.32-1.43-.46-2.66-.81-5.6-1.54-9-2.24C35,3.2,31.9,2.67,29,2.27H28.8Z"/></clipPath><linearGradient id="未命名的渐变_9-6" x1="-824.02" y1="577.16" x2="-823.11" y2="577.16" gradientTransform="matrix(57.75, 0, 0, -57.75, 47585.01, 33339.41)" xlink:href="#未命名的渐变_9"/><clipPath id="clip-path-7" transform="translate(-0.55 -0.36)"><path class="cls-1" d="M5.49,11.48h0ZM17.82,6.32c-3.05.69-5.67,1.4-8,2.17l-.34.12-.64.21-1,.36-.33.12-.63.25L6,10a7.29,7.29,0,0,0-.86.39L5,10.4l-.07,0a.88.88,0,0,0-.2.16l-.13.19v1.75l.1,3,.21,2.05L5,18c0,.23,0,.45.08.69l.17,1a44.35,44.35,0,0,0,2,7.94l.71,1.87a7.74,7.74,0,0,0,.37.88l.45,1c.38.9.84,1.76,1.29,2.59.19.35.38.7.56,1l0,0c.22.37.45.73.67,1.09s.27.42.4.64l.53.86.62.85.42.59c.25.35.5.71.78,1.07l1.27,1.55c.33.43.69.82,1,1.2l.34.35,1,1.12.25.24,1.73,1.63.27.25,1.16.95a29.83,29.83,0,0,0,2.42,1.85l.85.62c.37.25.75.49,1.12.71l.61.38.86.54.6.35.32.19a.6.6,0,0,0,.29.08.59.59,0,0,0,.3-1.09l-.33-.19c-.19-.11-.38-.21-.56-.33L26.78,50l-.63-.39c-.37-.23-.72-.44-1-.67l-.86-.62c-.78-.56-1.6-1.14-2.34-1.79l-1.16-.95-.22-.2-.13-.13-1.6-1.51-.21-.19-1-1.11-.34-.36a12.88,12.88,0,0,1-1-1.12L15,39.39c-.25-.33-.5-.68-.74-1l-.43-.6L13.21,37l-.52-.83-.4-.65c-.22-.35-.44-.7-.65-1s-.37-.7-.56-1.06a25.34,25.34,0,0,1-1.25-2.5l-.47-1c-.12-.27-.24-.52-.33-.79l-.71-1.87a43.76,43.76,0,0,1-2-7.73l-.16-1c0-.2,0-.41-.07-.61s0-.25,0-.36l-.2-2-.1-3v-1.2L6.48,11l.91-.4L8,10.39l.34-.12.94-.36.6-.2.35-.11c2.3-.76,4.88-1.46,7.9-2.15A.58.58,0,0,0,18,6.31h-.13"/></clipPath><linearGradient id="未命名的渐变_9-7" x1="-807.59" y1="586.82" x2="-806.68" y2="586.82" gradientTransform="matrix(26.55, 0, 0, -26.55, 21444.86, 15608.41)" xlink:href="#未命名的渐变_9"/><clipPath id="clip-path-8" transform="translate(-0.55 -0.36)"><path class="cls-1" d="M27.74.36c-3.5.51-6.78,1.11-10,1.81A90.35,90.35,0,0,0,7.77,4.88L7,5.18l-.43.16-.42.16c-.27.1-.55.2-.83.33l-.57.24A20.51,20.51,0,0,0,2.36,7.24L1,8a.65.65,0,0,0-.38.59V9c0,.72,0,1.46,0,2.18v1.35L.67,15.8,1,19.09l.43,2.6c.06.43.17.86.26,1.27L2,24.28a.58.58,0,0,0,.56.45h.14a.59.59,0,0,0,.43-.7l-.31-1.33c-.1-.4-.19-.78-.25-1.18L2.16,19l-.33-3.2-.11-3.23V11.19c0-.71,0-1.44,0-2.14V8.89l1.16-.64A20.06,20.06,0,0,1,5.17,7.14l.59-.25q.36-.16.75-.3l.43-.16.43-.16L8.15,6A88.06,88.06,0,0,1,18,3.31c3.21-.7,6.46-1.29,9.94-1.8A.57.57,0,0,0,28.4.85a.57.57,0,0,0-.57-.49h-.09"/></clipPath><linearGradient id="未命名的渐变_9-8" x1="-811.59" y1="584.42" x2="-810.68" y2="584.42" gradientTransform="matrix(30.59, 0, 0, -30.59, 24823.34, 17887.12)" xlink:href="#未命名的渐变_9"/><clipPath id="clip-path-9" transform="translate(-0.55 -0.36)"><polygon class="cls-1" points="16.57 12.65 16.57 22.48 37.53 30.96 37.53 33 28.88 38.18 20.24 33 20.24 29.72 16.57 29.72 16.57 35.08 28.88 42.45 41.2 35.08 41.2 28.48 20.24 20.01 20.24 16.32 37.53 16.32 37.53 18.41 41.2 18.41 41.2 12.65 16.57 12.65"/></clipPath><linearGradient id="未命名的渐变_9-9" x1="-852.41" y1="593.59" x2="-851.5" y2="593.59" gradientTransform="matrix(0, 32.73, 32.73, 0, -19401.15, 27913.31)" xlink:href="#未命名的渐变_9"/></defs><title>logo</title><g class="cls-2"><rect class="cls-3" x="5.77" y="34.66" width="20.44" height="20.58"/></g><g class="cls-4"><rect class="cls-5" x="3.22" y="22.15" width="14.1" height="23.93"/></g><g class="cls-6"><rect class="cls-7" x="31.74" y="31.28" width="18.57" height="20.78"/></g><g class="cls-8"><rect class="cls-9" x="30.36" y="1.98" width="26.3" height="53.31"/></g><g class="cls-10"><rect class="cls-11" x="27.72" y="3.96" width="24.87" height="41.29"/></g><g class="cls-12"><rect class="cls-13" x="2.03" y="1.9" width="52.59" height="18.18"/></g><g class="cls-14"><rect class="cls-15" x="4.08" y="5.95" width="24.26" height="45.81"/></g><g class="cls-16"><rect class="cls-17" width="27.9" height="24.38"/></g><g class="cls-18"><rect class="cls-19" x="16.01" y="12.29" width="24.64" height="29.81"/></g><path class="cls-20" d="M95,21.63,94.78,23h2l-.34,2.67h-2l-.39,3L89.26,31l6.49,3.74h-8L85,33.11l-3.19,1.6h-8L81.31,31l-4.16-2.39.39-3h-2L75.89,23h2l.18-1.32h4.48L82.35,23h8l.18-1.32ZM91.8,19.21H81.86l-.21,1.6H76.18l.55-4.27h8l.08-.57-.84-1h5.94l-.21,1.61H97.6l-.54,4.27H91.59Zm-2,7.48L90,25.62H82l-.13,1.07,3.69,2.14Z" transform="translate(-0.55 -0.36)"/><path class="cls-20" d="M116.36,14.93l4.9,8.3h-3.51l-.11.79h-5l-.31,2.39h5.47l-.34,2.67H112l-.39,3h8l-.34,2.67H98.36L98.7,32h8l.39-3h-5.47l.34-2.67h5.47L107.7,24h-5l.11-.79H99.38l6.39-7.51-.6-.79ZM106,21.35h9.24L113,17.6h-3.85Z" transform="translate(-0.55 -0.36)"/><path class="cls-20" d="M131.35,16.54h4.45l.08-.54L135,14.93h5l-.21,1.61h5.47L145,18.67h-5.46L139.44,20h5.47l-.27,1.4h-5.49l-.05,1.07h5.47l-.29,1.6h-5.47l-.05,1.16h5.47l-.29,1.51h-7l-.16,1.07h8l-.36,2.67h-3.51l3.4,4.28h-5L136.4,31l-.55,4.17h-5l.55-4.25-4,3.77h-5l4.5-4.28h-3.43l.36-2.67h7.93l.16-1.07h-2l-.05.54h-4L127,19l-2,.45.42-3.21,6.14-1.35Zm-1.07,8.64h4.5l.05-1.16h-4.47Zm.37-2.76h4.47l0-1.07H130.7ZM131,20h4.47l0-1.28h-4.44Z" transform="translate(-0.55 -0.36)"/><path class="cls-20" d="M153.43,32.57l1-7.48h-1.93l-1.89,10.1h-4.47l3.11-16.57-.81-1h10L158,15.86l-.73-.93h5l.68,2.68h6.91l-.34,2.67h-5.86l1.49,5.79L168.45,24,168,27.76l-2.12,1.29.79,3h.76L168.56,31,168,35.19h-5l-1-3.83-3.77,2.28.5-3.74,2.48-1.49-2.12-8.13h-5.73L153,22.42h5.76l-1.2,9.31a2.37,2.37,0,0,1-.71,1.36,1.85,1.85,0,0,1-1.33.55h-3.2Zm15.44-15.5h-5l-.26-1.86h5Z" transform="translate(-0.55 -0.36)"/><polygon class="cls-20" points="192.28 22.43 191.91 25.29 170.67 25.29 171.04 22.43 192.28 22.43"/><path class="cls-20" d="M202,17.6l-.08.59-2.22,17H195l2.1-15.95-1.52.31.42-3.21L202.33,15Zm4.84,3-1.75,8h1.18l1.15-8.84H202.7l.34-2.67h4.71L207.9,16l-.83-1.07h5.73l-.29,2.14h4.71l-.34,2.67h-4.71L211,28.58h1.2l.35-8h3.24l-.63,14.15h-3.22l.13-3.46h-1.41l-.52,3.94h-4.74l.5-3.94H204.5l-.76,3.46H200.5l3.09-14.15Z" transform="translate(-0.55 -0.36)"/><path class="cls-20" d="M218.87,34.2l2.22-12.32H223L220.72,34.2Zm4.55-13.14h-2.88l.34-2.67h2.88l.36-2.64-.65-.82h4.79l-.47,3.46h2.4l-.34,2.67h-2.4l-1.86,14.13h-4Zm2.85,11.45,1.31-10.69h1.85l-1.3,10.69Zm14.18,2.62h-5.52l.24-1.86,1.93-14.76h-2.2L232,35.13h-4.17l3.25-19.33h10.33L239.35,32h.76l.89-1.07Z" transform="translate(-0.55 -0.36)"/><path class="cls-20" d="M74.93,45.84v-3.5h2.24V46c0,1.25.53,1.69,1.56,1.69s1.59-.44,1.59-1.69V42.34h2.17v3.5c0,2.23-1.26,3.23-3.76,3.23s-3.8-1-3.8-3.23" transform="translate(-0.55 -0.36)"/><path class="cls-20" d="M93.26,42.34h2.29l2.34,3.16L98.81,47h.06a14.54,14.54,0,0,1-.3-2.44V42.34h2.14v6.6H98.42L96.1,45.76l-.92-1.45h-.07a19.15,19.15,0,0,1,.29,2.44v2.19H93.26Z" transform="translate(-0.55 -0.36)"/><rect class="cls-20" x="111" y="41.99" width="2.26" height="6.6"/><polygon class="cls-20" points="125.89 43.3 123.36 43.3 123.36 41.99 130.7 41.99 130.7 43.3 128.15 43.3 128.15 48.59 125.89 48.59 125.89 43.3"/><polygon class="cls-20" points="137.92 41.99 143.87 41.99 143.87 43.3 140.18 43.3 140.18 44.52 143.32 44.52 143.32 45.86 140.18 45.86 140.18 47.26 144.01 47.26 144.01 48.59 137.92 48.59 137.92 41.99"/><path class="cls-20" d="M155.08,42.34h2.7c2.86,0,4.75,1,4.75,3.27s-1.89,3.33-4.62,3.33h-2.83Zm2.56,5.33c1.51,0,2.59-.49,2.59-2.06s-1.08-2-2.59-2h-.3v4.07Z" transform="translate(-0.55 -0.36)"/><path class="cls-20" d="M172.34,48.12,173.62,47a4.74,4.74,0,0,0,2.28.67c.83,0,1.22-.22,1.22-.57s-.51-.51-1.32-.75L174.6,46c-1-.28-1.9-.86-1.9-1.81,0-1.11,1.41-2,3.4-2a5.42,5.42,0,0,1,3.05.87l-1.12,1a3.88,3.88,0,0,0-1.93-.5c-.69,0-1.12.19-1.12.55s.59.5,1.42.73l1.18.33c1.16.33,1.85.88,1.85,1.81,0,1.1-1.31,2.07-3.58,2.07a6.69,6.69,0,0,1-3.51-1" transform="translate(-0.55 -0.36)"/><rect class="cls-20" x="188.65" y="45.47" width="3.57" height="1.11"/><path class="cls-20" d="M202.56,48.12,203.83,47a4.74,4.74,0,0,0,2.28.67c.83,0,1.22-.22,1.22-.57s-.51-.51-1.32-.75l-1.2-.35c-1-.28-1.9-.86-1.9-1.81,0-1.11,1.41-2,3.4-2a5.42,5.42,0,0,1,3.05.87l-1.12,1a3.88,3.88,0,0,0-1.93-.5c-.69,0-1.12.19-1.12.55s.59.5,1.43.73l1.17.33c1.16.33,1.85.88,1.85,1.81,0,1.1-1.31,2.07-3.58,2.07a6.63,6.63,0,0,1-3.5-1" transform="translate(-0.55 -0.36)"/><rect class="cls-20" x="219.31" y="41.99" width="2.26" height="6.6"/><path class="cls-20" d="M232.94,42.34h2.7c2.86,0,4.75,1,4.75,3.27s-1.89,3.33-4.62,3.33h-2.83Zm2.56,5.33c1.52,0,2.59-.49,2.59-2.06s-1.07-2-2.59-2h-.3v4.07Z" transform="translate(-0.55 -0.36)"/></svg>