<svg id="图层_1" data-name="图层 1" xmlns="http://www.w3.org/2000/svg" xmlns:xlink="http://www.w3.org/1999/xlink" viewBox="0 0 62.21 60.71"><defs><style>.cls-1{fill:url(#未命名的渐变_60);}.cls-2{fill:url(#未命名的渐变_60-2);}.cls-3{fill:url(#未命名的渐变_60-3);}.cls-4{fill:url(#未命名的渐变_60-4);}.cls-5{fill:url(#未命名的渐变_60-5);}.cls-6{fill:url(#未命名的渐变_60-6);}.cls-7{fill:url(#未命名的渐变_60-7);}.cls-8{fill:url(#未命名的渐变_60-8);}.cls-9{fill:url(#未命名的渐变_60-9);}</style><linearGradient id="未命名的渐变_60" x1="18.11" y1="57.3" x2="40.37" y2="57.3" gradientUnits="userSpaceOnUse"><stop offset="0.01" stop-color="#23e5ff"/><stop offset="1" stop-color="#001ff3"/></linearGradient><linearGradient id="未命名的渐变_60-2" x1="15.27" y1="45.4" x2="30.63" y2="45.4" xlink:href="#未命名的渐变_60"/><linearGradient id="未命名的渐变_60-3" x1="46.62" y1="53.71" x2="66.83" y2="53.71" xlink:href="#未命名的渐变_60"/><linearGradient id="未命名的渐变_60-4" x1="45.11" y1="39.38" x2="73.89" y2="39.38" xlink:href="#未命名的渐变_60"/><linearGradient id="未命名的渐变_60-5" x1="42.16" y1="34.97" x2="69.42" y2="34.97" xlink:href="#未命名的渐变_60"/><linearGradient id="未命名的渐变_60-6" x1="13.91" y1="20.01" x2="71.66" y2="20.01" xlink:href="#未命名的渐变_60"/><linearGradient id="未命名的渐变_60-7" x1="16.15" y1="39.63" x2="42.7" y2="39.63" xlink:href="#未命名的渐变_60"/><linearGradient id="未命名的渐变_60-8" x1="11.68" y1="21.33" x2="42.27" y2="21.33" xlink:href="#未命名的渐变_60"/><linearGradient id="未命名的渐变_60-9" x1="31.11" y1="13.49" x2="31.11" y2="46.23" xlink:href="#未命名的渐变_60"/></defs><title>logo_dengbaoji</title><path class="cls-1" d="M39.73,68.6a.62.62,0,0,1-.32-.09l-.79-.46-2.43-1.51A14.27,14.27,0,0,1,35,65.72l-.39-.27-1.54-1.11c-.24-.17-.47-.36-.69-.54L30,61.89l-.48-.45c-.75-.7-1.53-1.43-2.29-2.17A54.6,54.6,0,0,1,18.18,47a.65.65,0,0,1,.26-.87.64.64,0,0,1,.87.26,52.85,52.85,0,0,0,8.87,12c.73.72,1.5,1.44,2.25,2.14l.47.43,2.27,1.87c.21.18.41.34.61.48l1.56,1.12.39.28c.38.27.74.53,1.12.76L39.28,67l.77.45a.63.63,0,0,1,.23.87A.61.61,0,0,1,39.73,68.6Z" transform="translate(-11.68 -7.94)"/><path class="cls-2" d="M30,58.54a.62.62,0,0,1-.44-.18A51.94,51.94,0,0,1,15.29,33.05a.64.64,0,1,1,1.25-.29A50.59,50.59,0,0,0,30.43,57.44a.63.63,0,0,1,0,.9A.65.65,0,0,1,30,58.54Z" transform="translate(-11.68 -7.94)"/><path class="cls-3" d="M47.25,65.12a.63.63,0,0,1-.54-.3.65.65,0,0,1,.2-.88A50,50,0,0,0,65.62,42.67a.63.63,0,0,1,.84-.31.64.64,0,0,1,.31.85,51.32,51.32,0,0,1-8,12.29A52.08,52.08,0,0,1,47.6,65,.64.64,0,0,1,47.25,65.12Z" transform="translate(-11.68 -7.94)"/><path class="cls-4" d="M45.75,68.65a.64.64,0,0,1-.55-.31.65.65,0,0,1,.22-.88l.37-.21c.21-.11.41-.23.63-.37l1-.64.71-.44c.44-.27.89-.55,1.3-.84l.93-.66c1-.69,2-1.41,2.89-2.2l1.41-1.17a2.77,2.77,0,0,0,.25-.24L57,58.74a3.07,3.07,0,0,0,.26-.25l1.23-1.32c.13-.13.25-.27.38-.41.43-.45.83-.88,1.2-1.35l1.54-1.89c.3-.39.61-.82.91-1.24l.49-.69.68-1,.64-1c.14-.23.28-.46.43-.69.28-.45.56-.9.83-1.36s.4-.76.62-1.16a33.84,33.84,0,0,0,1.54-3.07l.56-1.24c.15-.32.29-.63.4-.94l.86-2.28a51.67,51.67,0,0,0,2.34-9.24l.2-1.21c0-.24.06-.48.08-.73s0-.29.05-.44l.23-2.38.13-3.6V19.23c0-.12,0-.24,0-.37s0-.42,0-.63l0-.92-.32-.17-.91-.49a19.65,19.65,0,0,0-2.08-1.06l0,0-1.13-.49a6.38,6.38,0,0,0-.7-.28L67,14.65l-1.12-.43L65.14,14l-.4-.13a92.31,92.31,0,0,0-9.11-2.47.64.64,0,0,1,.28-1.25,94.63,94.63,0,0,1,9.23,2.51l.4.13c.25.08.51.16.76.26l1.14.42.4.15c.25.09.5.19.77.31l1.1.48A20.69,20.69,0,0,1,72,15.53l.9.48.49.27a.92.92,0,0,1,.37.28l.11.16,0,1.46c0,.22,0,.45,0,.69V21.3L73.77,25l-.24,2.41c0,.14,0,.28,0,.42s0,.54-.09.81l-.2,1.21a53.2,53.2,0,0,1-2.4,9.47l-.86,2.28c-.13.36-.29.71-.44,1l-.55,1.22A34.74,34.74,0,0,1,67.35,47l-.63,1.17c-.29.5-.57,1-.86,1.41l-.43.69-.66,1.06-.71,1-.48.68c-.31.42-.62.87-.95,1.3l-1.55,1.89a18.94,18.94,0,0,1-1.26,1.43l-.37.4-1.24,1.33c-.11.11-.21.21-.32.3l-2.07,1.95c-.1.1-.2.2-.31.29L54.1,63.07c-.94.82-2,1.56-3,2.27L50.2,66c-.45.32-.92.61-1.37.88l-.7.44-1,.65c-.22.14-.45.27-.67.39l-.35.21A.61.61,0,0,1,45.75,68.65Z" transform="translate(-11.68 -7.94)"/><path class="cls-5" d="M53.28,57.64a.64.64,0,0,1-.43-1.11,48.3,48.3,0,0,0,10.37-14l.5-1.11a30.48,30.48,0,0,0,1.22-2.89l.4-1.06a9.59,9.59,0,0,0,.34-1l.66-2.13a47.74,47.74,0,0,0,1.57-8.58L68,24.66c0-.21,0-.44,0-.66s0-.27,0-.41l.07-2.21V20L68,19.9l-1.5-.65c-.41-.17-.85-.33-1.27-.49l-.77-.29c-.42-.15-.86-.3-1.31-.44l-.78-.26L61,17.37l-.79-.23c-2.64-.75-5.52-1.43-8.8-2.09-1.35-.27-2.81-.54-4.48-.82l-4.23-.66a.64.64,0,0,1,.18-1.27l2,.3,2.26.37c1.68.28,3.16.56,4.53.83,3.3.66,6.21,1.35,8.9,2.11l.78.23c.47.14.94.27,1.4.42l.77.25c.46.15.92.3,1.37.47l.76.28c.44.16.9.33,1.34.52l1.72.76.48.25.08.11a.67.67,0,0,1,.14.45V21.4l-.07,2.24c0,.14,0,.26,0,.39s0,.5,0,.76l-.12,1.1a47.48,47.48,0,0,1-1.62,8.82l-.65,2.14c-.11.38-.25.76-.38,1.09l-.39,1a31.47,31.47,0,0,1-1.26,3c-.17.37-.34.75-.5,1.12A49.85,49.85,0,0,1,53.72,57.47.67.67,0,0,1,53.28,57.64Zm14.87-38h0Z" transform="translate(-11.68 -7.94)"/><path class="cls-6" d="M70.36,30h-.11a.64.64,0,0,1-.52-.74l.2-1.23.25-2.5c0-.12,0-.24,0-.37a8.11,8.11,0,0,0,.06-.83l.09-2.55c0-.53,0-1.08,0-1.6V18.63l-1-.52a8.67,8.67,0,0,0-.92-.44l-1.34-.58c-.81-.31-1.57-.6-2.33-.87L64,15.94c-.51-.17-1-.34-1.54-.49-2.89-.88-6.08-1.67-9.77-2.43-3.37-.69-6.68-1.26-9.85-1.7a145.24,145.24,0,0,0-16.37,3.21,67.75,67.75,0,0,0-8,2.55l-1.89.83-1.39.72v1c0,1,0,2,0,2.94a.64.64,0,0,1-.6.67.64.64,0,0,1-.67-.61c-.05-1-.05-2,0-3V17.89l.3-.19.12-.06.73-.39,1-.5L18,15.9a69.24,69.24,0,0,1,8.11-2.6A144.7,144.7,0,0,1,42.7,10.05l.09,0,.08,0c3.23.44,6.6,1,10,1.72,3.74.77,7,1.57,9.89,2.46.53.15,1.06.33,1.57.5l.85.28c.79.28,1.56.57,2.4.9L69,16.5c.34.15.68.3,1,.49l1.43.74.08.1a.71.71,0,0,1,.16.47v1.86c0,.54,0,1.1,0,1.66l-.08,2.53c0,.31,0,.63-.07.93l0,.36-.26,2.57L71,29.46A.65.65,0,0,1,70.36,30Zm0-11.74h0Z" transform="translate(-11.68 -7.94)"/><path class="cls-7" d="M42.06,64.78a.62.62,0,0,1-.32-.09l-.35-.2-.66-.39-.94-.58c-.23-.15-.45-.29-.68-.42-.4-.25-.82-.51-1.22-.79L37,61.64c-.89-.64-1.81-1.29-2.66-2l-1.27-1-.29-.27-1.9-1.79-.28-.27L29.4,55,29,54.61a16.31,16.31,0,0,1-1.15-1.31L26.5,51.6c-.31-.4-.59-.79-.86-1.17-.15-.22-.31-.44-.47-.65l-.67-.94-.58-1-.44-.7c-.25-.39-.5-.79-.74-1.19v0l-.62-1.15A31.52,31.52,0,0,1,20.69,42l-.5-1.1c-.14-.3-.29-.62-.41-1L19,37.84a47.78,47.78,0,0,1-2.21-8.72L16.62,28c0-.26-.07-.51-.09-.76s0-.25,0-.38l-.22-2.25-.12-3.33V19.4l.15-.21a.64.64,0,0,1,.22-.17l.08,0,.13-.07a7.66,7.66,0,0,1,.94-.44l1-.43c.22-.1.46-.19.69-.27l.36-.14,1-.39.71-.24.37-.12c2.57-.85,5.44-1.63,8.8-2.39a.64.64,0,0,1,.28,1.25c-3.31.75-6.15,1.51-8.67,2.35l-.39.13-.65.22-1,.39L19.8,19c-.22.08-.43.15-.62.24l-1,.44-.75.33V21.3l.11,3.28.22,2.19c0,.12,0,.26,0,.39s0,.45.08.67l.18,1.09a47.1,47.1,0,0,0,2.15,8.49L21,39.46a9.37,9.37,0,0,0,.36.87l.51,1.12a30.62,30.62,0,0,0,1.37,2.75c.21.39.42.77.62,1.16s.47.77.71,1.16l.44.7.58.92.63.89c.16.21.31.44.47.66.27.37.54.75.82,1.12l1.39,1.7c.33.43.7.82,1.08,1.23l.37.39,1.13,1.22.23.21,1.76,1.66.15.14.23.22,1.28,1.05c.81.71,1.71,1.35,2.57,2l.94.67c.36.25.75.49,1.15.74l.69.43.94.58c.19.13.4.24.61.36l.37.21a.64.64,0,0,1,.22.88A.64.64,0,0,1,42.06,64.78Zm-25-44.62Z" transform="translate(-11.68 -7.94)"/><path class="cls-8" d="M13.89,34.71a.64.64,0,0,1-.62-.49l-.34-1.46c-.11-.45-.22-.91-.29-1.39l-.47-2.86-.37-3.6-.12-3.58V19.84c0-.79,0-1.61,0-2.4V17a.69.69,0,0,1,.42-.64l1.51-.82a23.5,23.5,0,0,1,2.58-1.28l.62-.27c.31-.14.62-.25.92-.36l.45-.17.48-.18c.3-.11.6-.23.9-.33a97.52,97.52,0,0,1,10.92-3c3.56-.78,7.16-1.43,11-2a.64.64,0,1,1,.19,1.26c-3.82.56-7.39,1.21-10.92,2A97.2,97.2,0,0,0,20,14.12l-.86.31-.47.18-.47.18c-.29.1-.56.2-.83.32l-.64.29a19.13,19.13,0,0,0-2.47,1.22L13,17.31v.19c0,.76,0,1.56,0,2.34v1.47l.12,3.53.35,3.52.47,2.81c.07.44.16.85.27,1.3l.34,1.46a.62.62,0,0,1-.47.76A.39.39,0,0,1,13.89,34.71Z" transform="translate(-11.68 -7.94)"/><polygon class="cls-9" points="31.11 46.23 17.58 38.13 17.58 32.25 21.61 32.25 21.61 35.84 31.11 41.53 40.6 35.84 40.6 33.61 17.58 24.29 17.58 13.49 44.63 13.49 44.63 19.82 40.6 19.82 40.6 17.52 21.61 17.52 21.61 21.58 44.63 30.89 44.63 38.13 31.11 46.23"/></svg>